<svg width="131" height="131" viewBox="0 0 131 131" fill="none" xmlns="http://www.w3.org/2000/svg">
<circle cx="65.5" cy="65.5" r="65.5" fill="#FFCF4F"/>
<path d="M91.3696 47.9536C91.3662 47.9536 91.3628 47.9531 91.3594 47.9531H76.4844V46.3125C76.4844 43.5986 74.2764 41.3906 71.5625 41.3906H58.4375C55.7236 41.3906 53.5156 43.5986 53.5156 46.3125V47.9531H38.6406C37.7272 47.9531 37 48.7017 37 49.5938V85.6875C37 88.4014 39.208 90.6094 41.9219 90.6094H88.0781C90.792 90.6094 93 88.4014 93 85.6875V49.6284C93 49.6262 93 49.6241 93 49.6219C92.9372 48.5444 92.2745 47.9595 91.3696 47.9536ZM56.7969 46.3125C56.7969 45.408 57.533 44.6719 58.4375 44.6719H71.5625C72.467 44.6719 73.2031 45.408 73.2031 46.3125V47.9531H56.7969V46.3125ZM89.083 51.2344L83.9881 66.5187C83.7646 67.1899 83.1392 67.6406 82.4321 67.6406H73.2031V66C73.2031 65.0938 72.4687 64.3594 71.5625 64.3594H58.4375C57.5313 64.3594 56.7969 65.0938 56.7969 66V67.6406H47.5679C46.8608 67.6406 46.2354 67.1899 46.0119 66.5187L40.917 51.2344H89.083ZM69.9219 67.6406V70.9219H60.0781V67.6406H69.9219ZM89.7188 85.6875C89.7188 86.592 88.9826 87.3281 88.0781 87.3281H41.9219C41.0174 87.3281 40.2812 86.592 40.2812 85.6875V59.7037L42.899 67.5565C43.5698 69.5696 45.4462 70.9219 47.5679 70.9219H56.7969V72.5625C56.7969 73.4687 57.5313 74.2031 58.4375 74.2031H71.5625C72.4687 74.2031 73.2031 73.4687 73.2031 72.5625V70.9219H82.4321C84.5538 70.9219 86.4302 69.5696 87.101 67.5565L89.7188 59.7037V85.6875Z" fill="#2B2B2B"/>
</svg>
