<svg width="131" height="131" viewBox="0 0 131 131" fill="none" xmlns="http://www.w3.org/2000/svg">
<circle cx="65.5" cy="65.5" r="65.5" fill="#FFCF4F"/>
<path d="M74.6378 38C64.2013 38 55.7106 46.4908 55.7106 56.9272C55.7106 59.2474 56.1228 61.5021 56.9368 63.6432L38.8391 81.7421C38.5805 82.0009 38.4351 82.3517 38.4351 82.7174V92.6207C38.4351 93.3825 39.0526 94 39.8144 94H47.9756C48.341 94 48.6914 93.8551 48.9501 93.5968L51.7003 90.8508C51.9595 90.592 52.1051 90.2408 52.1051 89.8746V86.4975H55.4779C56.2397 86.4975 56.8572 85.88 56.8572 85.1182V83.7663H58.2092C58.9709 83.7663 59.5886 83.1488 59.5886 82.387V79.419H62.5565C62.9223 79.419 63.2731 79.2736 63.5318 79.015L67.9201 74.6267C70.0615 75.4415 72.3165 75.8543 74.6376 75.8543C85.074 75.8543 93.5648 67.3635 93.5648 56.927C93.5649 46.4908 85.0742 38 74.6378 38ZM74.6378 73.0956C72.3801 73.0956 70.1965 72.6396 68.1476 71.7401C67.6178 71.5076 67.0211 71.6355 66.6304 72.0163C66.6262 72.0203 66.622 72.0236 66.6179 72.0279L61.9854 76.6603H58.2094C57.4476 76.6603 56.8301 77.2779 56.8301 78.0397V81.0077H55.4781C54.7164 81.0077 54.0988 81.6252 54.0988 82.387V83.7389H50.7259C49.9642 83.7389 49.3466 84.3564 49.3466 85.1182V89.3026L47.4048 91.2412H41.194V89.2921L58.0531 72.433C58.538 71.9481 58.538 71.1622 58.0531 70.6774C57.5683 70.1927 56.7825 70.1925 56.2973 70.6774L41.194 85.7809V83.2889L59.5357 64.9458C59.5399 64.9417 59.5431 64.9379 59.5469 64.9338C59.9277 64.5435 60.0561 63.9468 59.8236 63.4166C58.925 61.3678 58.4695 59.1843 58.4695 56.9273C58.4695 48.012 65.7227 40.7588 74.6381 40.7588C83.5535 40.7588 90.8065 48.0119 90.8065 56.9273C90.8063 65.8425 83.5529 73.0956 74.6378 73.0956Z" fill="#2B2B2B"/>
<path d="M80.3979 46.0001C77.549 46.0001 75.2314 48.3178 75.2314 51.1667C75.2314 54.0156 77.549 56.3332 80.3979 56.3332C83.2468 56.3332 85.5644 54.0156 85.5644 51.1667C85.5644 48.3178 83.2469 46.0001 80.3979 46.0001ZM80.3979 53.5746C79.0702 53.5746 77.99 52.4944 77.99 51.1667C77.99 49.839 79.0702 48.7588 80.3979 48.7588C81.7256 48.7588 82.8058 49.839 82.8058 51.1667C82.8058 52.4944 81.7256 53.5746 80.3979 53.5746Z" fill="#2B2B2B"/>
</svg>
