<svg width="131" height="131" viewBox="0 0 131 131" fill="none" xmlns="http://www.w3.org/2000/svg">
<circle cx="65.5" cy="65.5" r="65.5" fill="#FFCF4F"/>
<g clip-path="url(#clip0)">
<path d="M89.2763 66.7253C89.051 66.2643 89.051 65.7355 89.2763 65.2746L91.3649 61.0019C92.5278 58.6229 91.6064 55.7874 89.2674 54.5463L85.0663 52.3173C84.6131 52.0769 84.3023 51.649 84.2136 51.1438L83.392 46.4594C82.9345 43.8513 80.5219 42.0987 77.9005 42.4695L73.1916 43.1356C72.6834 43.2074 72.1808 43.044 71.8121 42.6873L68.394 39.3807C66.4908 37.5395 63.5093 37.5394 61.6062 39.3807L58.188 42.6876C57.8192 43.0444 57.3166 43.2075 56.8084 43.136L52.0996 42.4699C49.4773 42.0988 47.0656 43.8516 46.6081 46.4597L45.7865 51.1439C45.6978 51.6492 45.387 52.077 44.9339 52.3175L40.7328 54.5466C38.3937 55.7875 37.4724 58.6233 38.6352 61.0023L40.7237 65.2749C40.9491 65.7359 40.9491 66.2646 40.7237 66.7255L38.6351 70.9981C37.4723 73.3771 38.3936 76.2126 40.7327 77.4537L44.9338 79.6827C45.387 79.9231 45.6978 80.351 45.7865 80.8562L46.6081 85.5406C47.0246 87.9149 49.0605 89.58 51.4003 89.5798C51.6308 89.5798 51.8646 89.5636 52.0997 89.5304L56.8086 88.8643C57.3164 88.7922 57.8193 88.9559 58.1881 89.3126L61.6062 92.6192C62.5579 93.5399 63.7788 94.0002 65 94.0001C66.221 94 67.4426 93.5397 68.3939 92.6192L71.8121 89.3126C72.1809 88.9559 72.6836 88.793 73.1916 88.8643L77.9005 89.5304C80.5231 89.9014 82.9345 88.1487 83.392 85.5405L84.2137 80.8563C84.3024 80.351 84.6132 79.9233 85.0663 79.6827L89.2674 77.4537C91.6064 76.2127 92.5278 73.377 91.3649 70.998L89.2763 66.7253ZM87.7535 74.6004L83.5524 76.8295C82.213 77.5403 81.2944 78.8045 81.0325 80.2981L80.2108 84.9824C80.0561 85.8648 79.2403 86.4575 78.3529 86.3323L73.644 85.6662C72.1423 85.4534 70.6563 85.9368 69.5664 86.991L66.1483 90.2975C65.5045 90.9203 64.4957 90.9203 63.8517 90.2975L60.4337 86.9909C59.5125 86.0998 58.3083 85.617 57.0512 85.617C56.8208 85.617 56.5886 85.6331 56.3561 85.6661L51.6472 86.3322C50.7606 86.4575 49.9441 85.8647 49.7892 84.9823L48.9675 80.2979C48.7055 78.8043 47.7869 77.54 46.4474 76.8294L42.2463 74.6003C41.4549 74.1805 41.1432 73.2211 41.5366 72.4162L43.6252 68.1435C44.2911 66.7812 44.2911 65.2186 43.6252 63.8563L41.5366 59.5836C41.1432 58.7787 41.4549 57.8194 42.2463 57.3995L46.4474 55.1704C47.7868 54.4596 48.7055 53.1955 48.9674 51.7018L49.789 47.0175C49.9439 46.1351 50.7596 45.5423 51.647 45.6677L56.3559 46.3337C57.857 46.5463 59.3435 46.0631 60.4334 45.0089L63.8516 41.7023C64.4954 41.0795 65.5041 41.0795 66.1481 41.7023L69.5662 45.0089C70.6561 46.0633 72.1424 46.5463 73.6438 46.3337L78.3527 45.6677C79.2394 45.5422 80.0559 46.1351 80.2106 47.0175L81.0322 51.7019C81.2943 53.1956 82.2128 54.4598 83.5523 55.1704L87.7534 57.3995C88.5448 57.8194 88.8566 58.7787 88.4631 59.5836L86.3745 63.8562C85.7087 65.2184 85.7087 66.7812 86.3745 68.1434L88.4631 72.416C88.8567 73.2211 88.5449 74.1806 87.7535 74.6004Z" fill="#2B2B2B"/>
<path d="M76.7998 54.2C76.1693 53.5694 75.1466 53.5694 74.516 54.2L53.2001 75.516C52.5694 76.1467 52.5694 77.1692 53.2001 77.7999C53.5154 78.1152 53.9288 78.2729 54.342 78.2729C54.7552 78.2729 55.1686 78.1153 55.4838 77.7999L76.7997 56.484C77.4306 55.8532 77.4306 54.8308 76.7998 54.2Z" fill="#2B2B2B"/>
<path d="M58.5403 51.4658C55.2752 51.4658 52.6189 54.1222 52.6189 57.3872C52.6189 60.6523 55.2752 63.3087 58.5403 63.3087C61.8053 63.3087 64.4617 60.6523 64.4617 57.3872C64.4617 54.1222 61.8053 51.4658 58.5403 51.4658ZM58.5403 60.0787C57.0562 60.0787 55.8488 58.8713 55.8488 57.3871C55.8488 55.903 57.0562 54.6956 58.5403 54.6956C60.0244 54.6956 61.2319 55.903 61.2319 57.3871C61.2318 58.8713 60.0244 60.0787 58.5403 60.0787Z" fill="#2B2B2B"/>
<path d="M71.4596 68.6915C68.1946 68.6915 65.5382 71.3479 65.5382 74.6129C65.5382 77.878 68.1946 80.5344 71.4596 80.5344C74.7246 80.5344 77.381 77.878 77.381 74.6129C77.381 71.3479 74.7246 68.6915 71.4596 68.6915ZM71.4596 77.3044C69.9755 77.3044 68.768 76.0971 68.768 74.6129C68.768 73.1288 69.9754 71.9215 71.4596 71.9215C72.9437 71.9215 74.1511 73.1288 74.1511 74.6129C74.1511 76.0971 72.9437 77.3044 71.4596 77.3044Z" fill="#2B2B2B"/>
</g>
<defs>
<clipPath id="clip0">
<rect width="56" height="56" fill="white" transform="translate(37 38)"/>
</clipPath>
</defs>
</svg>
