<svg width="131" height="131" viewBox="0 0 131 131" fill="none" xmlns="http://www.w3.org/2000/svg">
<circle cx="65.5" cy="65.5" r="65.5" fill="#FFCF4F"/>
<path d="M89.8633 46.9089C85.8571 46.9089 82.598 43.6497 82.598 39.6437V38H49.4019V39.6437C49.4019 43.6499 46.1426 46.9089 42.1367 46.9089H40.493V57.8396C40.493 65.6944 42.8591 73.2578 47.3358 79.712C51.8125 86.1661 58.0674 91.0324 65.4241 93.7845L66 94L66.576 93.7845C73.9329 91.0324 80.1877 86.1662 84.6642 79.712C89.1409 73.2578 91.507 65.6944 91.507 57.8396V46.9089H89.8633ZM88.2197 57.8396H88.2196C88.2196 65.0216 86.0561 71.937 81.9628 77.8383C77.9872 83.5704 72.4771 87.9329 65.9999 90.4842C59.5228 87.9327 54.0126 83.5704 50.0369 77.8383C45.9438 71.9371 43.7804 65.0216 43.7804 57.8396V50.0685C48.2855 49.3609 51.8539 45.7925 52.5615 41.2874H79.4386C80.1461 45.7925 83.7145 49.3609 88.2197 50.0685V57.8396Z" fill="#2B2B2B"/>
<path d="M73.3345 53.4423L62.4542 64.3227L58.6653 60.5338L51.6918 67.5075L62.4542 78.2699L80.308 60.4159L73.3345 53.4423ZM56.3409 67.5077L58.6654 65.1831L62.4543 68.972L73.3346 58.0916L75.6591 60.4161L62.4543 73.621L56.3409 67.5077Z" fill="#2B2B2B"/>
</svg>
