<svg width="83" height="72" viewBox="0 0 83 72" fill="none" xmlns="http://www.w3.org/2000/svg">
<path d="M22.2318 36.799C19.4623 36.799 17.2241 39.0451 17.2241 41.8147C17.2241 44.5761 19.4623 46.8224 22.2318 46.8224C25.0013 46.8224 27.2394 44.5761 27.2394 41.8147C27.2393 39.0451 25.0013 36.799 22.2318 36.799ZM22.2318 44.3185C20.847 44.3185 19.7278 43.1913 19.7278 41.8145C19.7278 40.4299 20.847 39.3107 22.2318 39.3107C23.6165 39.3107 24.7356 40.4299 24.7356 41.8145C24.7355 43.1913 23.6165 44.3185 22.2318 44.3185ZM60 33.0942V38.4414C60 39.7752 58.9187 40.8566 57.5847 40.8566H55.0004C54.5334 37.6523 51.7721 35.1887 48.4389 35.1887C45.114 35.1887 42.3525 37.6524 41.8855 40.8566H28.7868C28.3198 37.6523 25.5583 35.1887 22.2333 35.1887C18.9083 35.1887 16.1469 37.6524 15.68 40.8566H12.4435C11.1096 40.8566 10.0283 39.7753 10.0283 38.4414V33.0942H60ZM48.4454 36.799C45.6759 36.799 43.4297 39.0451 43.4297 41.8147C43.4297 44.5761 45.676 46.8224 48.4454 46.8224C51.2068 46.8224 53.4529 44.5761 53.4529 41.8147C53.4529 39.0451 51.2068 36.799 48.4454 36.799ZM48.4454 44.3185C47.0606 44.3185 45.9416 43.1913 45.9416 41.8145C45.9416 40.4299 47.0606 39.3107 48.4454 39.3107C49.8221 39.3107 50.9492 40.4299 50.9492 41.8145C50.9492 43.1913 49.8221 44.3185 48.4454 44.3185ZM59.0483 27.7095L49.5565 18.3222C48.9526 17.7264 48.1395 17.3882 47.2941 17.3882H42.5039V15.5928C42.5039 14.2565 41.4251 13.1776 40.0887 13.1776H12.4419C11.1134 13.1776 10.0267 14.2566 10.0267 15.5928V15.9713L0.22549 17.1009L17.5927 19.3624L0 21.1101L17.5308 23.6025L0 25.1225L10.0273 27.0137L10.0266 31.7591H59.9983V29.9959C59.9983 29.1344 59.6522 28.3133 59.0483 27.7095ZM54.9102 28.0234H45.7242C45.5149 28.0234 45.3458 27.8544 45.3458 27.6451V20.5523C45.3458 20.3429 45.5149 20.1738 45.7242 20.1738H47.4713C47.5678 20.1738 47.6645 20.2141 47.737 20.2785L55.1679 27.3714C55.4174 27.6048 55.2482 28.0234 54.9102 28.0234Z" fill="#E9C055"/>
<path d="M10.792 57.28H9.604L10.828 54.04H14.932V56.488L15.994 54.04H22.312L21.412 57.208H15.67C15.358 57.208 15.202 57.37 15.202 57.694V61.384L16.192 58.864L21.448 58.846H21.322L21.196 58.864L21.43 58.9C22.138 59.044 22.492 59.428 22.492 60.052V65.596C22.492 65.908 22.348 66.226 22.06 66.55C21.76 66.85 21.358 67 20.854 67H10.792V57.28ZM15.202 66.46L16.21 63.814H17.83C18.034 63.814 18.136 63.706 18.136 63.49V62.446C18.136 62.194 18.028 62.068 17.812 62.068H15.202V66.46ZM23.9371 65.452V59.206C23.9371 58.186 24.3931 57.676 25.3051 57.676H32.1451C32.7811 57.676 33.2251 57.796 33.4771 58.036C33.7291 58.276 33.8551 58.678 33.8551 59.242V62.896H27.9511V64.084C27.9511 64.156 27.9871 64.258 28.0591 64.39C28.1191 64.462 28.2091 64.51 28.3291 64.534H33.8551L32.9371 67H25.3231C24.9271 67 24.5971 66.838 24.3331 66.514C24.0691 66.19 23.9371 65.836 23.9371 65.452ZM27.9511 62.248L28.7251 60.898H29.5171C29.7331 60.898 29.8411 60.79 29.8411 60.574V59.926C29.8411 59.71 29.7511 59.59 29.5711 59.566H28.3291L28.2031 59.602C28.0471 59.674 27.9631 59.776 27.9511 59.908V62.248ZM39.1119 67H34.7739L35.5119 64.57H36.4119C36.4959 64.57 36.5859 64.534 36.6819 64.462C36.7899 64.378 36.8439 64.294 36.8439 64.21V60.124H35.8899L36.6459 58.288L36.8799 57.676H45.4119C45.9999 57.676 46.4259 57.814 46.6899 58.09C46.9539 58.354 47.0859 58.804 47.0859 59.44V67H43.0719V60.574C43.0719 60.274 42.9579 60.124 42.7299 60.124H41.2719C41.0079 60.124 40.8759 60.262 40.8759 60.538V64.66L40.8579 64.678V65.686C40.8579 65.962 40.6959 66.274 40.3719 66.622C40.1199 66.874 39.6999 67 39.1119 67ZM53.9763 62.5L52.1403 67H47.5323L50.8263 60.178L49.3323 57.28H47.7303L48.8643 54.04H52.3923L53.9763 58.162L55.6143 54.04H60.4383L57.3063 60.178L60.4923 67H55.7943L53.9763 62.5ZM61.309 65.776L61.273 65.452V59.278L61.327 58.81C61.495 58.054 61.951 57.676 62.695 57.676H65.161V59.8L66.007 57.676H70.075C70.567 57.676 70.921 57.802 71.137 58.054C71.353 58.306 71.461 58.762 71.461 59.422V65.488C71.461 66.028 71.347 66.418 71.119 66.658C70.891 66.886 70.507 67 69.967 67H67.573V64.912L66.673 67H62.641C61.981 67 61.537 66.592 61.309 65.776ZM65.287 64.156C65.287 64.384 65.413 64.498 65.665 64.498H67.123C67.219 64.498 67.321 64.408 67.429 64.228L67.447 64.174V60.52L67.411 60.394C67.339 60.25 67.231 60.166 67.087 60.142H65.629C65.401 60.142 65.287 60.274 65.287 60.538V64.156ZM72.7695 56.506H71.8515L72.7875 54.04H76.8015V67H72.7695V56.506ZM78.1133 56.506H77.1953L78.1313 54.04H82.1453V67H78.1133V56.506Z" fill="#E9C055"/>
</svg>
