<svg width="22" height="23" viewBox="0 0 22 23" fill="none" xmlns="http://www.w3.org/2000/svg">
<path d="M6.17968 21.951L5.19596 16.4105L10.3987 18.2275L6.17968 21.951Z" fill="#7D3DAF"/>
<path d="M21.1068 9.59636C21.1068 14.8766 16.675 18.7712 10.8967 18.7712C5.99001 19.344 0.43396 14.4907 0.43396 9.21044C0.43396 3.93019 4.86572 0.035614 10.6441 0.035614C16.4225 0.035614 21.1068 4.3161 21.1068 9.59636Z" fill="#7D3DAF"/>
<path d="M21.2869 5.41066L21.2804 5.38468C20.7551 3.26112 18.3869 0.982411 16.2121 0.508343L16.1876 0.503292C12.67 -0.167764 9.10327 -0.167764 5.58636 0.503292L5.56111 0.508343C3.38703 0.982411 1.01885 3.26112 0.492829 5.38468L0.487057 5.41066C-0.162352 8.37629 -0.162352 11.3838 0.487057 14.3494L0.492829 14.3754C0.99641 16.4083 3.18824 18.5823 5.28186 19.1802V21.5507C5.28186 22.4086 6.32741 22.83 6.92198 22.2109L9.32371 19.7144C9.84461 19.7435 10.3658 19.7598 10.887 19.7598C12.6577 19.7598 14.4291 19.5924 16.1876 19.2569L16.2121 19.2518C18.3869 18.7777 20.7551 16.499 21.2804 14.3755L21.2869 14.3495C21.9363 11.3838 21.9363 8.37629 21.2869 5.41066ZM19.3863 13.9194C19.0356 15.3048 17.2375 17.0271 15.8088 17.3454C13.9384 17.701 12.0532 17.853 10.17 17.8009C10.1325 17.7999 10.0965 17.8144 10.0704 17.8412C9.80312 18.1156 8.31676 19.6414 8.31676 19.6414L6.45152 21.5557C6.31514 21.6978 6.07558 21.6011 6.07558 21.4049V17.478C6.07558 17.4131 6.02926 17.358 5.96554 17.3455C5.96518 17.3454 5.96482 17.3454 5.96446 17.3453C4.53576 17.0271 2.73834 15.3047 2.38694 13.9193C1.80247 11.2387 1.80247 8.52126 2.38694 5.84064C2.73834 4.45523 4.53576 2.73286 5.96446 2.41465C9.23099 1.79338 12.543 1.79338 15.8088 2.41465C17.2382 2.73286 19.0356 4.45523 19.3863 5.84064C19.9714 8.52133 19.9714 11.2387 19.3863 13.9194Z" fill="white"/>
<path d="M13.9948 15.732C13.7752 15.6653 13.5658 15.6205 13.3714 15.5398C11.3571 14.7041 9.50328 13.626 8.03482 11.9732C7.19975 11.0334 6.54616 9.97231 5.99366 8.84941C5.73165 8.31689 5.51086 7.76353 5.2858 7.21376C5.08059 6.71242 5.38285 6.19448 5.70113 5.81674C5.99979 5.46224 6.38409 5.19093 6.80029 4.99098C7.12514 4.83491 7.44559 4.92489 7.68284 5.20024C8.19573 5.79553 8.66684 6.42127 9.04833 7.1113C9.28291 7.53573 9.21855 8.05453 8.7934 8.34338C8.69007 8.41358 8.59591 8.49599 8.49965 8.57529C8.41523 8.64477 8.33578 8.71498 8.27791 8.80907C8.17213 8.98124 8.16708 9.18429 8.2352 9.37146C8.75949 10.8123 9.64319 11.9327 11.0934 12.5361C11.3254 12.6326 11.5585 12.7451 11.8259 12.7139C12.2736 12.6616 12.4185 12.1705 12.7323 11.9139C13.0389 11.6632 13.4308 11.6598 13.7612 11.8689C14.0916 12.078 14.4119 12.3025 14.7302 12.5293C15.0427 12.752 15.3539 12.9698 15.6421 13.2237C15.9193 13.4678 16.0148 13.788 15.8587 14.1193C15.5729 14.726 15.1572 15.2307 14.5574 15.5529C14.3881 15.6437 14.1858 15.6732 13.9948 15.732C13.7752 15.6652 14.1858 15.6732 13.9948 15.732Z" fill="white"/>
<path d="M10.8925 4.29727C13.5273 4.37109 15.6913 6.11965 16.1551 8.72451C16.2341 9.16834 16.2622 9.62213 16.2974 10.0726C16.3121 10.2621 16.2049 10.4421 16.0004 10.4446C15.7892 10.4471 15.6941 10.2704 15.6804 10.081C15.6533 9.70605 15.6345 9.32947 15.5828 8.95764C15.31 6.99491 13.745 5.3711 11.7913 5.02266C11.4974 4.9702 11.1965 4.95642 10.8987 4.92518C10.7104 4.90541 10.4639 4.894 10.4222 4.66C10.3872 4.46381 10.5528 4.30759 10.7396 4.29756C10.7904 4.29474 10.8415 4.29705 10.8925 4.29727C13.5273 4.37109 10.8415 4.29705 10.8925 4.29727Z" fill="white"/>
<path d="M14.8966 9.48795C14.8922 9.52085 14.8899 9.5982 14.8707 9.67108C14.8007 9.93561 14.3997 9.96873 14.3073 9.70175C14.28 9.62252 14.2759 9.5324 14.2757 9.44711C14.2748 8.88905 14.1535 8.33157 13.8721 7.84602C13.5828 7.34699 13.1408 6.92747 12.6225 6.67363C12.309 6.52015 11.97 6.42476 11.6265 6.3679C11.4763 6.34308 11.3246 6.328 11.1737 6.307C10.9909 6.2816 10.8932 6.16507 10.9019 5.98489C10.91 5.81604 11.0334 5.69461 11.2174 5.705C11.822 5.73934 12.4061 5.87002 12.9436 6.15468C14.0368 6.73359 14.6613 7.64738 14.8435 8.86755C14.8517 8.92282 14.865 8.97758 14.8692 9.03307C14.8795 9.1701 14.886 9.30727 14.8966 9.48795C14.8922 9.52085 14.886 9.30727 14.8966 9.48795Z" fill="white"/>
<path d="M13.2577 9.42412C13.0373 9.42809 12.9193 9.30607 12.8966 9.10396C12.8808 8.96304 12.8683 8.82024 12.8347 8.68315C12.7684 8.41314 12.6249 8.1629 12.3978 7.99744C12.2905 7.9193 12.169 7.86236 12.0417 7.82564C11.88 7.77895 11.7121 7.7918 11.5508 7.75225C11.3756 7.70932 11.2787 7.56746 11.3062 7.40309C11.3313 7.25351 11.4768 7.13676 11.6403 7.14859C12.6618 7.22234 13.3919 7.75045 13.4961 8.95301C13.5034 9.03787 13.5121 9.12756 13.4932 9.20873C13.461 9.34771 13.3581 9.41734 13.2577 9.42412C13.0373 9.42809 13.3581 9.41734 13.2577 9.42412Z" fill="white"/>
</svg>
