<svg width="23" height="23" viewBox="0 0 23 23" fill="none" xmlns="http://www.w3.org/2000/svg">
<g clip-path="url(#clip0)">
<path d="M0.534313 23C0.405163 23 0.279522 22.9489 0.186344 22.8547C0.0635109 22.7305 0.0161323 22.5501 0.0622826 22.3814L1.55752 16.9213C0.626614 15.238 0.135807 13.3337 0.136509 11.4007C0.139141 5.11425 5.25497 0 11.5409 0C14.5898 0.00122833 17.4546 1.18885 19.6079 3.3437C21.7608 5.49872 22.946 8.36337 22.9451 11.4098C22.9423 17.6964 17.8264 22.811 11.5409 22.811C11.5409 22.811 11.5361 22.811 11.536 22.811C9.69996 22.8103 7.87975 22.3628 6.25905 21.5153L0.658375 22.984C0.617314 22.9947 0.57555 23 0.534313 23Z" fill="#E5E5E5"/>
<path d="M0.534332 22.5106L2.08273 16.8562C1.12762 15.2013 0.625229 13.3241 0.625931 11.4009C0.628387 5.38432 5.52452 0.48941 11.5409 0.48941C14.4605 0.490639 17.2009 1.62702 19.2617 3.68957C21.3223 5.75211 22.4567 8.49375 22.4557 11.4096C22.453 17.426 17.5562 22.3216 11.5409 22.3216C11.5405 22.3216 11.5411 22.3216 11.5409 22.3216H11.5362C9.70945 22.3209 7.91468 21.8627 6.32048 20.9933L0.534332 22.5106ZM6.58843 19.0179L6.91991 19.2143C8.31248 20.0408 9.90914 20.4779 11.5374 20.4788H11.5409C16.5409 20.4788 20.6105 16.4098 20.6127 11.4089C20.6135 8.98544 19.6709 6.70653 17.9581 4.9923C16.2451 3.27808 13.9676 2.33349 11.5442 2.33244C6.54018 2.33244 2.47071 6.40085 2.46878 11.4016C2.46808 13.1153 2.94748 14.784 3.85574 16.2282L4.07158 16.5714L3.15489 19.9181L6.58843 19.0179Z" fill="white"/>
<path d="M0.913879 22.1297L2.40876 16.6708C1.48646 15.0732 1.00162 13.2607 1.00214 11.4044C1.00443 5.59612 5.73122 0.870728 11.539 0.870728C14.3578 0.871956 17.0035 1.96903 18.9925 3.96016C20.982 5.95129 22.077 8.59799 22.0759 11.4126C22.0735 17.2211 17.3465 21.947 11.5395 21.947C11.539 21.947 11.5397 21.947 11.5395 21.947H11.5347C9.77139 21.9463 8.03856 21.5037 6.49963 20.665L0.913879 22.1297Z" fill="#64B161"/>
<path d="M0.534332 22.5106L2.08273 16.8562C1.12762 15.2013 0.625229 13.3241 0.625931 11.4009C0.628387 5.38432 5.52452 0.48941 11.5409 0.48941C14.4605 0.490639 17.2009 1.62702 19.2617 3.68957C21.3223 5.75211 22.4567 8.49375 22.4557 11.4096C22.453 17.426 17.5562 22.3216 11.5409 22.3216C11.5405 22.3216 11.5411 22.3216 11.5409 22.3216H11.5362C9.70945 22.3209 7.91468 21.8627 6.32048 20.9933L0.534332 22.5106ZM6.58843 19.0179L6.91991 19.2143C8.31248 20.0408 9.90914 20.4779 11.5374 20.4788H11.5409C16.5409 20.4788 20.6105 16.4098 20.6127 11.4089C20.6135 8.98544 19.6709 6.70653 17.9581 4.9923C16.2451 3.27808 13.9676 2.33349 11.5442 2.33244C6.54018 2.33244 2.47071 6.40085 2.46878 11.4016C2.46808 13.1153 2.94748 14.784 3.85574 16.2282L4.07158 16.5714L3.15489 19.9181L6.58843 19.0179Z" fill="white"/>
<path fill-rule="evenodd" clip-rule="evenodd" d="M8.81295 6.83919C8.60869 6.38506 8.39356 6.37593 8.19913 6.36804C8.04015 6.36119 7.85818 6.36154 7.67656 6.36154C7.49477 6.36154 7.19927 6.42998 6.94939 6.70285C6.69934 6.97571 5.99463 7.6355 5.99463 8.97737C5.99463 10.3194 6.97203 11.616 7.10837 11.7981C7.24472 11.9801 8.99509 14.8218 11.7671 15.915C14.0709 16.8236 14.5396 16.6429 15.0397 16.5974C15.5398 16.552 16.6532 15.9376 16.8804 15.3008C17.1079 14.664 17.1079 14.1183 17.0396 14.0041C16.9713 13.8905 16.7896 13.8223 16.5169 13.6859C16.2442 13.5496 14.9034 12.8896 14.6533 12.7987C14.4033 12.7076 14.2215 12.6624 14.0397 12.9354C13.8577 13.2081 13.3355 13.8223 13.1763 14.0041C13.0172 14.1864 12.858 14.2092 12.5853 14.0727C12.3126 13.936 11.4342 13.6482 10.3922 12.719C9.58153 11.9963 9.03405 11.1034 8.87489 10.8304C8.71591 10.5577 8.87226 10.4229 8.99474 10.274C9.21531 10.0057 9.58539 9.52327 9.67629 9.34148C9.76718 9.15933 9.72174 9.00018 9.65365 8.86366C9.58539 8.72731 9.05528 7.3786 8.81295 6.83919Z" fill="white"/>
</g>
<defs>
<clipPath id="clip0">
<rect width="23" height="23" fill="white"/>
</clipPath>
</defs>
</svg>
